<svg xmlns="http://www.w3.org/2000/svg" width="10" height="18" viewBox="0 0 10 18"><defs><clipPath id="sxc0a"><path fill="#fff" d="M0 2a2 2 0 0 1 2-2h6a2 2 0 0 1 2 2v14a2 2 0 0 1-2 2H2a2 2 0 0 1-2-2z"/></clipPath></defs><g><g><g><path fill="#fff" d="M0 2a2 2 0 0 1 2-2h6a2 2 0 0 1 2 2v14a2 2 0 0 1-2 2H2a2 2 0 0 1-2-2z"/><path fill="none" stroke="#979797" stroke-miterlimit="50" stroke-width="2" d="M0 2a2 2 0 0 1 2-2h6a2 2 0 0 1 2 2v14a2 2 0 0 1-2 2H2a2 2 0 0 1-2-2z" clip-path="url(&quot;#sxc0a&quot;)"/></g><g><path fill="#979797" d="M5 16a1 1 0 1 0 0-2 1 1 0 0 0 0 2z"/></g><g><path fill="#979797" d="M5 3c.552 0 1-.224 1-.5S5.552 2 5 2s-1 .224-1 .5.448.5 1 .5z"/></g></g></g></svg>