<svg xmlns="http://www.w3.org/2000/svg" width="34" height="34" viewBox="0 0 34 34"><g><g><g><path fill="#fff" d="M17 33c8.837 0 16-7.163 16-16S25.837 1 17 1 1 8.163 1 17s7.163 16 16 16z"/><path fill="none" stroke="#3f3f3f" stroke-miterlimit="50" d="M17 33c8.837 0 16-7.163 16-16S25.837 1 17 1 1 8.163 1 17s7.163 16 16 16z"/></g><g><path fill="#3e3e3e" d="M6.33 29.35s2.381-7.02 10.17-7.02c7.79 0 10.504 7.02 10.504 7.02s-4.661 3.564-10.504 3.564S6.33 29.35 6.33 29.35z"/></g><g><path fill="#3e3e3e" d="M6.33 19.161s2.064-2.239 2.181-3.498C9.06 9.79 12.204 6.33 16.5 6.33c4.609 0 6.482 3.171 8.426 9.909.246.854 2.078 2.922 2.078 2.922s-1.798.901-2.728.901c-.93 0-2.199-.9-2.199-.9s-2.05 4.501-5.577 4.501c-3.965 0-5.712-4.502-5.712-4.502s-.957.901-1.809.901-2.649-.9-2.649-.9z"/></g></g></g></svg>