<svg xmlns="http://www.w3.org/2000/svg" width="27" height="34" viewBox="0 0 27 34"><g><g><path fill="none" stroke="#333" stroke-miterlimit="50" d="M13.64 31.024c4.577 0 10.693-1.556 11.924-4.227 1.034-2.241-2.475-5.242-2.475-9.026 0-5.617.629-12.425-4.01-14.999C16.874 1.548 16.355 1 13.642 1c-3.288 0-4.275 1.474-6.764 3.218-3.884 2.72-3.485 8.501-3.485 13.553 0 4.13-3.518 7.637-2.021 9.913.76 1.157 2.8 1.996 5.176 2.544 1.234.285-.407 2.363 3.212 2.732 3.618.37 2.894-1.936 3.882-1.936z"/></g></g></svg>